<svg width="46" height="36" viewBox="0 0 46 36" fill="none" xmlns="http://www.w3.org/2000/svg">
<path d="M1.26283 18.6262H4.02198C0.0299034 10.3232 4.56353 2.06703 12.0607 0.381994C12.416 0.30224 12.7685 0.52548 12.848 0.880585C12.9281 1.23569 12.7051 1.58851 12.3496 1.66826C5.52216 3.20347 1.38888 10.9397 5.48483 18.6262H7.9299L10.2088 14.045C10.4718 13.5163 11.2454 13.5753 11.426 14.136L13.5295 20.6565L15.8901 15.2714C16.0362 14.9376 16.425 14.786 16.7588 14.932C17.0919 15.0785 17.2438 15.4672 17.0973 15.8007L14.0396 22.7771C13.7965 23.3309 12.9938 23.2911 12.8082 22.7144L10.6685 16.0809L8.92832 19.579C8.81652 19.8029 8.58818 19.9447 8.33783 19.9447H6.28571C10.4859 26.3255 19.5792 31.1915 23.1037 33.6322C28.7253 29.9899 36.1794 25.6295 39.9215 19.9447H36.7266C36.4741 19.9447 36.2443 19.8005 36.1336 19.5735L33.3185 13.7822L29.7919 24.1313C29.5857 24.7366 28.7179 24.7209 28.5361 24.1054L25.7463 14.6681L23.2306 18.8968C22.9519 19.3656 22.2574 19.3107 22.0533 18.8077L19.0371 11.3758L18.1362 13.4302C17.9901 13.7639 17.6016 13.9153 17.2681 13.7695C16.9348 13.6232 16.7832 13.2345 16.929 12.9012L18.4565 9.41562C18.6931 8.87654 19.4544 8.89837 19.6715 9.4327L22.7762 17.0827L25.3847 12.6977C25.6776 12.2052 26.4204 12.2973 26.5831 12.848L29.2125 21.7443L32.5873 11.8408C32.776 11.2859 33.5463 11.2357 33.804 11.7651L37.1387 18.6262H40.7223C45.3549 9.9327 39.4625 1.40242 31.4561 1.40242C28.4537 1.40242 25.6563 2.59801 23.5801 4.76826C23.3206 5.03974 22.8866 5.03974 22.6273 4.76826C20.8158 2.87513 18.3878 1.69713 15.7906 1.45154C15.428 1.41738 15.1618 1.09573 15.1961 0.73305C15.2304 0.370902 15.5523 0.104705 15.9144 0.13886C18.6053 0.393789 21.1331 1.53921 23.1033 3.38516C25.3737 1.25154 28.3142 0.0841064 31.4561 0.0841064C40.1283 0.0841064 46.7567 9.11897 42.1852 18.6262H44.9443C45.3082 18.6262 45.6037 18.9213 45.6037 19.2853C45.6037 19.6494 45.3082 19.9447 44.9443 19.9447H41.4678C37.6748 26.3161 29.6634 30.9526 23.4611 34.9709C23.2436 35.1119 22.9635 35.1119 22.7461 34.9709C16.5524 30.958 8.53342 26.3179 4.73941 19.9447H1.26283C0.898918 19.9447 0.603668 19.6494 0.603668 19.2853C0.603668 18.9213 0.898918 18.6262 1.26283 18.6262Z" fill="#606F89"/>
</svg>
