<svg width="48" height="48" viewBox="0 0 48 48" fill="none" xmlns="http://www.w3.org/2000/svg">
<g clip-path="url(#clip0)">
<path d="M10.566 23.7372C10.566 23.323 10.2301 22.9871 9.81593 22.9871H7.83095C7.41675 22.9871 7.08092 23.323 7.08092 23.7372C7.08092 24.1514 7.41675 24.4872 7.83095 24.4872H9.81583C10.2301 24.4872 10.566 24.1515 10.566 23.7372Z" fill="#606F89"/>
<path d="M43.175 13.7159C35.8167 6.63145 28.4003 10.7335 31.7477 17.4774C32.6348 19.2642 33.3164 20.6704 33.7628 21.8522H30.9496C29.9995 21.8522 29.2265 21.0795 29.2265 20.1298V4.68023C29.2265 3.4947 28.2619 2.53015 27.076 2.53015C25.8902 2.53015 24.9256 3.4947 24.9256 4.68023V20.2436C24.9256 21.6694 25.4341 22.9787 26.2791 23.9999C25.4128 25.051 24.9256 26.3835 24.9256 27.7563V43.3197C24.9256 44.5052 25.8902 45.4697 27.076 45.4697C28.2619 45.4697 29.2265 44.5052 29.2265 43.3197V27.8702C29.2265 26.9205 29.9995 26.1478 30.9496 26.1478H34.0917C33.8115 26.8973 33.3181 27.6525 32.5904 28.517C28.646 33.2026 32.077 42.4659 40.667 39.0779C49.4195 35.6255 50.4391 20.7095 43.175 13.7159ZM26.4258 4.68023C26.4258 4.3218 26.7174 4.03022 27.0761 4.03022C27.4348 4.03022 27.7265 4.3218 27.7265 4.68023V20.1298C27.7265 21.9067 29.1724 23.3523 30.9497 23.3523H34.2201C34.3243 23.8184 34.3744 24.2439 34.3719 24.6449C30.4946 24.6282 30.2961 24.7366 29.3079 24.3741C27.6273 23.7538 26.4259 22.1365 26.4259 20.2437V4.68023H26.4258ZM27.7264 27.8702V43.3198C27.7264 43.6782 27.4348 43.9698 27.076 43.9698C26.7173 43.9698 26.4257 43.6782 26.4257 43.3198V27.7563C26.4257 26.7486 26.7578 25.8007 27.3719 25.0282C27.746 25.2989 28.148 25.5232 28.5706 25.698C28.0466 26.2713 27.7264 27.0341 27.7264 27.8702ZM40.1165 37.6825C33.0132 40.4837 30.771 33.0076 33.738 29.4831C34.7142 28.3234 35.3298 27.2957 35.637 26.263C36.2288 26.4763 37.0878 27.0843 37.2663 28.8172C37.3082 29.2242 37.6715 29.529 38.0893 29.4865C38.5014 29.444 38.801 29.0755 38.7585 28.6635C38.498 26.1353 37.0323 25.0886 35.8717 24.7663C35.9015 24.0624 35.7117 23.1533 35.7145 23.167C37.9697 22.4452 38.4831 20.133 38.4167 18.8932C38.3948 18.4809 38.0437 18.1652 37.631 18.1859C37.2186 18.2062 36.9002 18.5577 36.9186 18.9702C36.9189 18.9772 36.9467 19.682 36.6603 20.3932C36.3897 21.0652 35.9426 21.5033 35.3036 21.7225C34.8245 20.3468 34.062 18.7658 33.0914 16.8105C30.4024 11.3931 36.2753 9.15541 42.1345 14.7967C48.693 21.1106 47.7324 34.6785 40.1165 37.6825Z" fill="#606F89"/>
<path d="M40.1679 22.9871H38.1831C37.7688 22.9871 37.433 23.323 37.433 23.7372C37.433 24.1514 37.7688 24.4872 38.1831 24.4872H40.1679C40.5821 24.4872 40.918 24.1514 40.918 23.7372C40.918 23.323 40.5821 22.9871 40.1679 22.9871Z" fill="#606F89"/>
<path d="M20.9228 2.53015C19.7371 2.53015 18.7724 3.4947 18.7724 4.68023V20.1298C18.7724 21.0795 17.9994 21.8522 17.0493 21.8522C16.7729 21.8522 18.0256 21.8551 14.235 21.8551C14.6813 20.6728 15.3635 19.2657 16.2511 17.4774C19.5991 10.7325 12.1832 6.63051 4.82387 13.716C-2.45646 20.7254 -1.39713 35.6349 7.33208 39.078C15.9206 42.4657 19.3541 33.2042 15.4087 28.5171C14.6809 27.6526 14.1875 26.8974 13.9074 26.1479H17.0495C17.9996 26.1479 18.7726 26.9205 18.7726 27.8703V43.3199C18.7726 44.5054 19.7372 45.4699 20.923 45.4699C22.1088 45.4699 23.0735 44.5054 23.0735 43.3199V27.7563C23.0735 26.3305 22.565 25.0212 21.7198 24C22.586 22.9489 23.0735 21.6164 23.0735 20.2436V4.68023C23.0733 3.4947 22.1086 2.53015 20.9228 2.53015ZM20.2726 20.1298V4.68023C20.2726 4.3218 20.5643 4.03022 20.9229 4.03022C21.2815 4.03022 21.5733 4.3218 21.5733 4.68023V20.2436C21.5733 21.2513 21.2412 22.1992 20.627 22.9718C20.253 22.7011 19.8509 22.4768 19.4283 22.302C19.9524 21.7287 20.2726 20.9659 20.2726 20.1298ZM7.88252 37.6825C0.26008 34.676 -0.689934 21.1069 5.86435 14.7965C11.7211 9.15785 17.5984 11.3894 14.9076 16.8103C13.9371 18.7656 13.1746 20.3466 12.6954 21.7223C12.0564 21.5031 11.6093 21.065 11.3387 20.393C11.0553 19.6891 11.0795 18.9916 11.0804 18.9706C11.1009 18.5582 10.784 18.2064 10.3713 18.1843C9.95552 18.1615 9.60441 18.4795 9.58219 18.8931C9.57685 18.9937 9.54066 19.9043 9.92412 20.8952C10.2463 21.7277 10.9124 22.7319 12.2846 23.1687C12.1759 23.6929 12.1152 24.226 12.1273 24.7663C10.9666 25.0887 9.50091 26.1354 9.24046 28.6635C9.19499 29.1047 9.54066 29.4904 9.98749 29.4904C10.3672 29.4904 10.6929 29.2031 10.7327 28.8172C10.9103 27.0929 11.765 26.4827 12.363 26.2664C12.6706 27.298 13.2859 28.3246 14.2611 29.483C17.2109 32.9874 15.0208 40.4982 7.88252 37.6825ZM21.5732 43.3198C21.5732 43.6782 21.2815 43.9698 20.9228 43.9698C20.5642 43.9698 20.2725 43.6782 20.2725 43.3198V27.8702C20.2725 26.0933 18.8266 24.6477 17.0493 24.6477H13.627C13.6243 24.2466 13.6742 23.8213 13.7783 23.3551H17.1706C19.5936 23.3551 21.5731 25.3249 21.5731 27.7563V43.3198H21.5732Z" fill="#606F89"/>
</g>
<defs>
<clipPath id="clip0">
<rect width="48" height="48" fill="white"/>
</clipPath>
</defs>
</svg>
