<svg width="48" height="48" viewBox="0 0 48 48" fill="none" xmlns="http://www.w3.org/2000/svg">
<g clip-path="url(#clip0)">
<path d="M46.2515 23.5901C45.6838 23.4789 45.1071 23.5952 44.6271 23.9177C44.2296 24.1848 43.9378 24.5671 43.7861 25.0129L41.3194 23.9357C41.3244 23.7669 41.327 23.6005 41.327 23.4385C41.327 21.9882 41.1454 20.5481 40.7871 19.153L41.8936 18.4025C42.595 19.0167 43.6143 19.2004 44.5067 18.8127C45.7075 18.2909 46.2827 16.9012 45.816 15.649L45.2951 14.2511C44.8229 12.9836 43.4645 12.3158 42.2028 12.7299C41.5643 12.9396 41.0504 13.3869 40.756 13.9894C40.5885 14.3321 40.5041 14.6997 40.5039 15.0691L39.2486 15.2443C39.0766 14.9291 38.8887 14.6096 38.6881 14.2913C38.4806 13.9622 38.0453 13.8636 37.7164 14.0711C37.3871 14.2786 37.2885 14.7136 37.496 15.0428C37.7328 15.4184 37.9498 15.7948 38.141 16.1617C38.3329 16.5296 38.7376 16.7382 39.1471 16.6811L41.4109 16.3651C41.6209 16.3358 41.8066 16.2134 41.9164 16.0319C42.0261 15.8504 42.0482 15.6291 41.9767 15.4295C41.8794 15.1586 41.8956 14.8669 42.0219 14.6082C42.148 14.3502 42.3683 14.1587 42.6423 14.0687C43.1738 13.8944 43.7712 14.1969 43.9747 14.7433L44.4956 16.1412C44.6972 16.6822 44.4502 17.3009 43.945 17.5206C43.4614 17.7306 42.892 17.5505 42.6199 17.1018C42.5198 16.9367 42.3563 16.82 42.1677 16.7788C41.9792 16.7376 41.7818 16.7758 41.622 16.8841L39.7445 18.1577C39.3962 18.3938 39.2376 18.8256 39.35 19.2322C39.7268 20.5969 39.9179 22.0121 39.9179 23.4386C39.9179 23.6723 39.912 23.9165 39.9005 24.1646C39.8818 24.5687 40.1179 24.9488 40.4878 25.1103L44.0079 26.6475C44.2037 26.7331 44.4277 26.7251 44.6168 26.626C44.8061 26.5269 44.94 26.3473 44.9812 26.1376L45.0928 25.5693C45.1317 25.3712 45.2454 25.2 45.413 25.0874C45.5805 24.9748 45.7819 24.9341 45.9801 24.9731C46.3892 25.0533 46.6568 25.4514 46.5765 25.8604L45.9993 28.8023C45.9591 29.0071 45.8401 29.1817 45.664 29.294C45.4882 29.4063 45.2791 29.4403 45.0753 29.3905C44.6902 29.2959 44.4426 28.8834 44.5235 28.4709L44.5389 28.3922C44.5804 28.18 44.5223 27.9605 44.3811 27.7968C44.2399 27.6328 44.0298 27.5423 43.8154 27.5529L40.0077 27.7266C39.6046 27.7449 39.2481 28.0153 39.1208 28.3996C38.768 29.4647 38.2998 30.4938 37.7291 31.4582C37.5165 31.8172 37.5538 32.2724 37.8218 32.5909L39.5063 34.5921C39.6314 34.7408 39.8124 34.831 40.0063 34.8418C40.2003 34.8524 40.3902 34.7827 40.5309 34.6488C40.9085 34.2897 41.4825 34.2589 41.8958 34.5752C42.1195 34.7464 42.2631 34.9944 42.3003 35.2736C42.3375 35.5528 42.2635 35.8297 42.0925 36.0534L41.6044 36.6913C41.2537 37.1494 40.5988 37.2672 40.1444 36.9541C39.7582 36.688 39.5931 36.192 39.7428 35.748C39.8595 35.4022 39.6927 35.0245 39.3585 34.8778L36.9319 33.812C36.546 33.6422 36.0956 33.7382 35.8107 34.0507C34.7288 35.2388 33.4793 36.2511 32.097 37.0594C31.7478 37.2633 31.5572 37.6678 31.6224 38.0658L32.2436 41.8538C32.2782 42.0646 32.4065 42.2483 32.5926 42.3533C32.7787 42.4584 33.0022 42.4732 33.2007 42.3939L33.7382 42.1788C33.932 42.1013 34.1433 42.1064 34.3333 42.1932C34.5231 42.2798 34.6654 42.4367 34.7341 42.6351C34.8639 43.0099 34.6519 43.4419 34.2615 43.598L31.5165 44.6961C31.3227 44.7737 31.1114 44.7686 30.9214 44.6819C30.7316 44.5953 30.5893 44.4383 30.5205 44.24C30.3907 43.8653 30.6026 43.4332 30.9927 43.2771L31.0671 43.2474C31.2679 43.1671 31.4206 42.9991 31.4815 42.7915C31.5423 42.584 31.5045 42.3601 31.3788 42.1841L29.1642 39.0811C28.93 38.7526 28.5092 38.6001 28.1181 38.7016C26.8269 39.0363 25.4921 39.206 24.1507 39.206C23.0885 39.206 22.0237 39.0987 20.9861 38.8872C20.5899 38.8065 20.1783 38.9806 19.961 39.3207L17.7444 42.7973C17.6295 42.9774 17.6026 43.1999 17.6713 43.4022C17.7398 43.6046 17.8964 43.7648 18.0972 43.838L18.1756 43.8667C18.4448 43.9647 18.6596 44.1618 18.7805 44.4216C18.9014 44.6812 18.9139 44.9725 18.8158 45.2416C18.7875 45.319 18.7732 45.4007 18.7732 45.483C18.7732 45.7495 18.6945 45.9514 18.5518 46.0512C18.4091 46.1512 18.1926 46.156 17.9421 46.0645L15.219 45.0716C14.6737 44.8728 14.3834 44.2648 14.5718 43.7162C14.6617 43.4547 14.8552 43.242 15.1167 43.1172C15.393 42.9854 15.7142 42.9691 15.9976 43.0724L16.06 43.0952C16.263 43.1694 16.489 43.146 16.6727 43.0319C16.8566 42.9179 16.9777 42.7258 17.0015 42.5109L17.4528 38.4365C17.4972 38.0355 17.2857 37.6417 16.9264 37.4562C15.2792 36.6055 13.8054 35.4803 12.5464 34.1123C12.2693 33.811 11.8293 33.7126 11.4514 33.8677L8.12838 35.2305C7.94398 35.3061 7.80026 35.4562 7.73281 35.6437C7.66527 35.8312 7.68039 36.0385 7.77423 36.2143C7.98513 36.6088 7.8616 37.0921 7.48697 37.3384C7.10079 37.5925 6.56008 37.4737 6.28203 37.0735L5.43085 35.8483C5.15787 35.4553 5.22287 34.9279 5.57881 34.6474C5.76283 34.5023 5.99119 34.4388 6.22134 34.4684C6.45328 34.4983 6.65844 34.6172 6.79925 34.8034C6.92663 34.9719 7.12296 35.0744 7.33413 35.0826C7.54456 35.0907 7.74887 35.0037 7.88884 34.8454L10.2294 32.1999C10.5041 31.8895 10.5533 31.4367 10.3518 31.0728C10.1001 30.6188 9.86605 30.1409 9.65619 29.652C9.50251 29.2946 9.08834 29.1292 8.73071 29.2828C8.37318 29.4363 8.20785 29.8506 8.36135 30.2081C8.54951 30.646 8.75551 31.0762 8.97552 31.4906L7.29909 33.3856C7.02949 33.2203 6.72532 33.1124 6.40133 33.0707C5.79195 32.9925 5.19056 33.1593 4.70668 33.5405C3.76646 34.2815 3.57632 35.6483 4.27382 36.6521L5.12499 37.8773C5.83526 38.8997 7.24207 39.1859 8.2614 38.5156C9.02371 38.0142 9.3911 37.1398 9.26287 36.2879L11.7128 35.2832C12.971 36.6043 14.4176 37.7086 16.0202 38.571L15.6851 41.5974C15.2828 41.5859 14.8781 41.6696 14.5101 41.8451C13.9044 42.1341 13.453 42.6358 13.2392 43.2581C12.8031 44.5279 13.4748 45.9352 14.7364 46.3952L17.4594 47.3881C17.7327 47.4878 18.0073 47.537 18.2717 47.537C18.67 47.537 19.0455 47.4252 19.3597 47.2054C19.8527 46.8604 20.1475 46.2823 20.1794 45.6062C20.3621 45.017 20.3202 44.3896 20.058 43.8265C19.8899 43.4654 19.6433 43.1567 19.3382 42.9185L20.9926 40.3237C23.3683 40.7657 25.8455 40.7007 28.1866 40.1365L29.7943 42.389C29.1615 42.9617 28.8987 43.8628 29.189 44.7011C29.3852 45.2669 29.7925 45.7152 30.336 45.9635C30.872 46.2082 31.4928 46.223 32.0398 46.0043L34.7849 44.9062C35.8818 44.4674 36.4444 43.2672 36.0656 42.1738C35.8695 41.608 35.4622 41.1597 34.9187 40.9114C34.4728 40.7077 33.9678 40.6631 33.4956 40.7801L33.0602 38.1255C34.3789 37.324 35.5824 36.3498 36.644 35.2245L38.2834 35.9446C38.2375 36.7867 38.628 37.6204 39.3449 38.1145C40.4261 38.8595 41.9101 38.6104 42.7235 37.5476L43.2116 36.9097C43.6115 36.3871 43.7839 35.7401 43.6971 35.0878C43.6103 34.4355 43.2748 33.856 42.7521 33.4561C41.9896 32.8726 40.9943 32.7941 40.1746 33.1979L39.0936 31.9136C39.5989 31.024 40.025 30.087 40.3636 29.1208L43.127 28.9947C43.2641 29.8371 43.8779 30.5473 44.7395 30.7588C45.321 30.9017 45.9187 30.8031 46.4223 30.4816C46.9188 30.1646 47.2687 29.6514 47.382 29.0734L47.9593 26.1315C48.1891 24.96 47.423 23.82 46.2515 23.5901Z" fill="#606F89"/>
<path d="M4.53928 25.4932L7.18008 26.1032C7.23757 26.4704 7.30868 26.8432 7.39228 27.2151C7.46584 27.5428 7.75667 27.7655 8.07906 27.7654C8.13017 27.7654 8.18211 27.7598 8.23406 27.7481C8.61367 27.6628 8.85236 27.286 8.76707 26.9063C8.67003 26.4738 8.59122 26.0407 8.53297 25.6189C8.47746 25.2175 8.17554 24.8867 7.78184 24.7958L4.04169 23.9321C3.83381 23.8841 3.61474 23.933 3.44706 24.0652C3.27929 24.1974 3.18056 24.3987 3.17868 24.6123L3.17483 25.0501C3.17041 25.5403 2.76808 25.9391 2.27781 25.9391C2.04438 25.9391 1.82522 25.8478 1.66092 25.682C1.49653 25.5161 1.40719 25.2963 1.40926 25.0629L1.43368 22.3458C1.43585 22.0967 1.54171 21.8529 1.72405 21.6771C1.89539 21.5117 2.11192 21.4231 2.34066 21.4298C2.81655 21.4424 3.2017 21.8403 3.19907 22.3169C3.19784 22.5327 3.29563 22.7372 3.46444 22.8717C3.63325 23.0063 3.85457 23.0561 4.06442 23.0067L7.77827 22.1359C8.17169 22.0436 8.47229 21.7119 8.52649 21.3104C8.80051 19.2783 9.45986 17.3464 10.4861 15.5684C10.6932 15.2093 10.6524 14.7564 10.3842 14.4411L8.6132 12.3611C8.47473 12.1986 8.27117 12.1073 8.05643 12.1136C7.8429 12.1198 7.64366 12.2225 7.51478 12.3928L7.36128 12.5957C7.24658 12.7473 7.07937 12.8427 6.89037 12.8644C6.70202 12.886 6.51687 12.8305 6.37005 12.7082C6.09255 12.477 6.05516 12.0399 6.28672 11.7337L7.4664 10.174C7.69542 9.8712 8.1281 9.81108 8.43086 10.0402C8.71437 10.2546 8.78698 10.6573 8.59629 10.957C8.48563 11.1311 8.45679 11.3448 8.51738 11.542C8.57797 11.7392 8.72188 11.8999 8.91108 11.9817L11.3876 13.0528C11.7715 13.219 12.2197 13.1226 12.5028 12.8126C13.6302 11.5776 14.9371 10.5345 16.3875 9.71235C16.7389 9.51301 16.9347 9.11133 16.875 8.71247L16.3045 4.91662C16.2727 4.70535 16.1468 4.51991 15.9622 4.41245C15.7774 4.30489 15.5538 4.28704 15.3548 4.36369L14.8143 4.57158C14.6195 4.64635 14.4083 4.63856 14.2196 4.54932C14.031 4.46017 13.8908 4.30132 13.8248 4.10208C13.7 3.72557 13.9176 3.29656 14.3102 3.1456L17.0697 2.08419C17.2645 2.00923 17.4757 2.01721 17.6644 2.10645C17.8531 2.1956 17.9933 2.35445 18.0593 2.55369C18.1841 2.9302 17.9664 3.35921 17.5739 3.51027L17.4993 3.53901C17.2975 3.6167 17.1425 3.78269 17.0789 3.98935C17.0154 4.19601 17.0502 4.42043 17.1735 4.59807L19.3459 7.72978C19.5757 8.06101 19.9938 8.21911 20.3864 8.12301C21.6108 7.82316 22.8773 7.67107 24.1522 7.67107H24.1526C24.5682 7.67107 24.9409 7.40908 25.0798 7.01952L25.7991 5.0068C25.8636 4.82625 25.8518 4.6271 25.7662 4.45557C25.6807 4.28394 25.529 4.15449 25.3459 4.09729C24.8221 3.93346 24.489 3.41905 24.5536 2.87421C24.5881 2.58432 24.7403 2.32044 24.9823 2.13116C25.2364 1.93238 25.5615 1.84098 25.8748 1.88053L26.8627 2.00491C27.503 2.0855 27.9694 2.65186 27.9024 3.26734C27.8506 3.74248 27.518 4.12782 27.055 4.249C26.7158 4.33777 26.4935 4.66242 26.5334 5.01074L26.7834 7.1918C26.831 7.60804 27.1386 7.94828 27.549 8.03856C29.1226 8.38425 30.6306 8.97014 32.0306 9.7797C32.3813 9.98261 32.8275 9.94766 33.1411 9.69309L36.1217 7.27371C36.2876 7.1391 36.3833 6.93647 36.3822 6.72286C36.381 6.50934 36.283 6.30775 36.1158 6.17492L35.6623 5.81485C35.4989 5.68512 35.3984 5.49913 35.3794 5.29105C35.3605 5.08336 35.4261 4.88195 35.5643 4.72385C35.8251 4.42504 36.3053 4.39479 36.6348 4.65622L38.9504 6.49468C39.1138 6.62441 39.2143 6.81041 39.2333 7.01839C39.2522 7.22609 39.1866 7.42749 39.0484 7.58568C38.7875 7.88431 38.3071 7.91456 37.9781 7.65341L37.9156 7.60381C37.7462 7.4692 37.5243 7.41998 37.3142 7.47014C37.1037 7.5203 36.9281 7.66431 36.8376 7.86073L35.2411 11.3263C35.0723 11.6928 35.1489 12.1336 35.4313 12.423C35.5315 12.5256 35.6304 12.6318 35.7481 12.7596C36.0116 13.0459 36.4573 13.0643 36.7437 12.8008C37.0299 12.5372 37.0483 12.0915 36.7848 11.8052C36.735 11.751 36.6881 11.7003 36.6427 11.6517L37.8022 9.13472C38.6133 9.4 39.526 9.18104 40.1097 8.51285C40.5036 8.06185 40.6908 7.48573 40.6365 6.89063C40.583 6.30389 40.2878 5.75746 39.8264 5.39128L37.5109 3.55291C36.5857 2.81841 35.2645 2.92541 34.503 3.79706C34.1091 4.24806 33.9219 4.82418 33.9762 5.41928C34.0208 5.90757 34.2326 6.36805 34.5685 6.71985L32.4807 8.41497C31.1167 7.65698 29.6621 7.09138 28.1493 6.73056L27.9945 5.37907C28.7106 4.98303 29.2129 4.25369 29.3038 3.41999C29.4534 2.04492 28.4375 0.78305 27.0392 0.606916L26.0513 0.482542C25.3688 0.396682 24.6626 0.593013 24.1149 1.02128C23.5749 1.44353 23.2339 2.04257 23.1549 2.70813C23.0399 3.67569 23.4863 4.60023 24.2616 5.12309L23.8536 6.26453C22.6665 6.28483 21.4865 6.42658 20.3377 6.68688L18.7611 4.41395C19.4013 3.84995 19.6762 2.95237 19.3971 2.1103C19.2086 1.54188 18.8073 1.08816 18.2671 0.83265C17.7345 0.580801 17.114 0.557599 16.5641 0.769054L13.8047 1.83037C12.702 2.25441 12.1234 3.44705 12.4876 4.54546C12.676 5.11388 13.0772 5.56761 13.6175 5.82312C14.0607 6.03269 14.5647 6.08408 15.0387 5.97333L15.4385 8.63347C14.0473 9.45364 12.7818 10.4631 11.6698 11.6394L10.0791 10.9515C10.2084 10.1984 9.92063 9.40001 9.2811 8.91622C8.83423 8.57823 8.28272 8.43423 7.72755 8.51154C7.17256 8.58847 6.68079 8.87705 6.3429 9.32391L5.16313 10.8837C4.47277 11.7962 4.60682 13.0732 5.46824 13.7908C5.91398 14.1621 6.47601 14.3304 7.05129 14.2642C7.41398 14.2226 7.75855 14.0856 8.04994 13.873L9.11718 15.1266C8.13101 16.9055 7.47748 18.8218 7.17181 20.8308L4.44563 21.47C4.11468 20.6441 3.31395 20.0459 2.37795 20.0212C1.76857 20.0059 1.19114 20.2332 0.745493 20.6631C0.293086 21.0997 0.0302471 21.7084 0.0245168 22.333L9.28979e-05 25.0503C-0.00535552 25.6625 0.22902 26.2392 0.659915 26.674C1.09081 27.1089 1.66543 27.3483 2.27772 27.3483C3.39089 27.3484 4.32792 26.5485 4.53928 25.4932Z" fill="#606F89"/>
<path d="M20.6629 21.6473C21.0066 21.4652 21.1376 21.0387 20.9554 20.6949C20.7732 20.3512 20.3469 20.2199 20.0028 20.4023C18.3192 21.2948 16.4001 21.0589 15.4404 19.8411C14.9018 19.1579 14.7166 18.2527 14.9187 17.2921C15.1306 16.2849 15.7367 15.3445 16.6253 14.6442C17.5137 13.9438 18.5697 13.5746 19.5984 13.6032C20.5796 13.6309 21.4165 14.0224 21.9552 14.7056C22.7638 15.7315 22.7535 17.2628 21.929 18.6068C21.7255 18.9385 21.8293 19.3723 22.1611 19.5758C22.4927 19.7792 22.9265 19.6754 23.13 19.3437C24.2668 17.4909 24.2399 15.328 23.0617 13.8333C22.2601 12.8164 21.0442 12.2344 19.6383 12.1948C18.2795 12.1553 16.9002 12.6333 15.753 13.5376C14.6056 14.442 13.8197 15.6724 13.5398 17.002C13.2501 18.3783 13.5321 19.6965 14.3337 20.7134C15.1777 21.7841 16.4993 22.3473 17.9212 22.3472C18.827 22.3472 19.7734 22.1188 20.6629 21.6473Z" fill="#606F89"/>
<path d="M34.3335 15.3289C34.3335 13.8683 32.9742 12.6799 31.3034 12.6799C29.6327 12.6799 28.2733 13.8683 28.2733 15.3289C28.2733 16.7895 29.6327 17.9779 31.3034 17.9779C32.9742 17.9779 34.3335 16.7895 34.3335 15.3289ZM29.6825 15.3289C29.6825 14.6452 30.4096 14.089 31.3035 14.089C32.1974 14.089 32.9245 14.6452 32.9245 15.3289C32.9245 16.0126 32.1974 16.5688 31.3035 16.5688C30.4096 16.5688 29.6825 16.0126 29.6825 15.3289Z" fill="#606F89"/>
<path d="M26.1576 27.4377C26.1576 25.6476 24.7012 24.1913 22.9111 24.1913C21.121 24.1913 19.6646 25.6476 19.6646 27.4377C19.6646 29.2278 21.121 30.6841 22.9111 30.6841C24.7012 30.6841 26.1576 29.2278 26.1576 27.4377ZM21.0738 27.4377C21.0738 26.4246 21.898 25.6004 22.9112 25.6004C23.9243 25.6004 24.7486 26.4246 24.7486 27.4377C24.7486 28.4508 23.9244 29.275 22.9112 29.275C21.898 29.275 21.0738 28.4508 21.0738 27.4377Z" fill="#606F89"/>
<path d="M35.3423 26.1134C35.3423 24.7213 34.2097 23.5888 32.8177 23.5888C31.4257 23.5888 30.2932 24.7213 30.2932 26.1134C30.2932 27.5055 31.4257 28.638 32.8177 28.638C34.2097 28.6379 35.3423 27.5055 35.3423 26.1134ZM31.7022 26.1134C31.7022 25.4983 32.2026 24.9979 32.8176 24.9979C33.4327 24.9979 33.9331 25.4983 33.9331 26.1134C33.9331 26.7285 33.4327 27.2289 32.8176 27.2289C32.2027 27.2288 31.7022 26.7285 31.7022 26.1134Z" fill="#606F89"/>
<path d="M26.0962 37.469C27.4603 37.469 28.5702 36.3592 28.5702 34.9951C28.5702 33.631 27.4604 32.5211 26.0962 32.5211C24.7321 32.5211 23.6222 33.6309 23.6222 34.9951C23.6222 36.3592 24.732 37.469 26.0962 37.469ZM26.0962 33.9302C26.6834 33.9302 27.1611 34.4079 27.1611 34.9951C27.1611 35.5823 26.6834 36.06 26.0962 36.06C25.509 36.06 25.0313 35.5823 25.0313 34.9951C25.0313 34.4079 25.509 33.9302 26.0962 33.9302Z" fill="#606F89"/>
<path d="M15.0245 33.3103C16.4294 33.3103 17.5723 32.1674 17.5723 30.7625C17.5723 29.3577 16.4294 28.2147 15.0245 28.2147C13.6197 28.2147 12.4767 29.3577 12.4767 30.7625C12.4767 32.1674 13.6197 33.3103 15.0245 33.3103ZM15.0245 29.6238C15.6525 29.6238 16.1632 30.1346 16.1632 30.7625C16.1632 31.3904 15.6524 31.9012 15.0245 31.9012C14.3966 31.9012 13.8858 31.3904 13.8858 30.7625C13.8858 30.1346 14.3966 29.6238 15.0245 29.6238Z" fill="#606F89"/>
<path d="M29.371 21.9452C29.371 21.5561 29.0557 21.2407 28.6665 21.2407H28.0437C27.6545 21.2407 27.3391 21.5561 27.3391 21.9452C27.3391 22.3343 27.6545 22.6497 28.0437 22.6497H28.6665C29.0557 22.6497 29.371 22.3343 29.371 21.9452Z" fill="#606F89"/>
<path d="M19.7294 34.965H20.3693C20.7585 34.965 21.0738 34.6495 21.0738 34.2604C21.0738 33.8714 20.7585 33.5559 20.3693 33.5559H19.7294C19.3402 33.5559 19.0248 33.8714 19.0248 34.2604C19.0248 34.6495 19.3403 34.965 19.7294 34.965Z" fill="#606F89"/>
<path d="M13.7977 24.7049C14.1869 24.7049 14.5022 24.3895 14.5022 24.0004C14.5022 23.6113 14.1869 23.2958 13.7977 23.2958H13.1813C12.7921 23.2958 12.4767 23.6113 12.4767 24.0004C12.4767 24.3895 12.7921 24.7049 13.1813 24.7049H13.7977Z" fill="#606F89"/>
<path d="M26.3109 12.3786C26.7001 12.3786 27.0154 12.0632 27.0154 11.6741C27.0154 11.285 26.7001 10.9695 26.3109 10.9695H25.453C25.0639 10.9695 24.7485 11.285 24.7485 11.6741C24.7485 12.0632 25.0639 12.3786 25.453 12.3786H26.3109Z" fill="#606F89"/>
<path d="M30.9977 31.2624C30.6085 31.2624 30.2931 31.5778 30.2931 31.9669C30.2931 32.356 30.6085 32.6715 30.9977 32.6715H31.9449C32.3341 32.6715 32.6495 32.356 32.6495 31.9669C32.6495 31.5778 32.3341 31.2624 31.9449 31.2624H30.9977Z" fill="#606F89"/>
</g>
<defs>
<clipPath id="clip0">
<rect width="48" height="48" fill="white"/>
</clipPath>
</defs>
</svg>
