<svg width="48" height="48" viewBox="0 0 48 48" fill="none" xmlns="http://www.w3.org/2000/svg">
<path d="M47.0625 46.125H13.9869C12.7548 46.125 11.5965 45.6452 10.7253 44.774L2.33223 36.3808C2.03645 36.085 1.87398 35.6917 1.87501 35.2735C1.87595 34.8552 2.0402 34.4627 2.33739 34.1682C2.94601 33.5652 3.93395 33.5675 4.53976 34.1736L12.693 42.3289C12.8689 42.5047 13.1074 42.6036 13.356 42.6036H25.374C25.8917 42.6036 26.3115 42.1837 26.3115 41.6661C26.3115 41.1483 25.8918 40.7286 25.374 40.7286L14.4135 40.7284C13.5566 40.7284 12.8596 40.0312 12.8596 39.1744C12.8596 38.3175 13.5565 37.6204 14.4131 37.6203H21.3727C21.6244 37.6203 21.8654 37.5191 22.0417 37.3396L23.5346 35.819C24.8856 34.4429 26.7665 33.6537 28.6948 33.6537C30.2743 33.6537 31.835 34.1824 33.0895 35.1423L36.0758 37.4273C36.2394 37.5525 36.4395 37.6204 36.6455 37.6204H47.0625C47.5803 37.6204 48 37.2007 48 36.6829C48 36.1651 47.5802 35.7454 47.0625 35.7454H36.963L34.229 33.6532C32.6492 32.4445 30.6839 31.7788 28.6949 31.7788C26.2666 31.7788 23.898 32.7726 22.1967 34.5055L20.9795 35.7455H18.378L13.6125 27.4886C12.6696 25.8551 10.5702 25.2875 8.93251 26.2226C8.13301 26.6794 7.56029 27.4203 7.31992 28.3091C7.26704 28.5047 7.23264 28.7021 7.21454 28.8997C5.87326 27.692 3.79473 27.7283 2.49807 29.0128C1.59563 29.9069 1.2811 31.1997 1.60473 32.3707C1.3966 32.5017 1.19926 32.6562 1.01767 32.8361C0.363571 33.4843 0.00216513 34.3484 8.88004e-06 35.2691C-0.00205362 36.1899 0.355228 37.0556 1.00632 37.7067L9.39939 46.0999C10.6249 47.3252 12.2541 48 13.9869 48H47.0625C47.5803 48 48 47.5803 48 47.0625C48 46.5447 47.5803 46.125 47.0625 46.125ZM9.12995 28.7987C9.23917 28.3949 9.49933 28.0582 9.86251 27.8508C10.6065 27.4256 11.5602 27.6837 11.9887 28.4258L16.2131 35.7453H14.0651L10.6203 32.2995L9.28492 29.9866C9.07576 29.6244 9.02073 29.2026 9.12995 28.7987ZM3.81779 30.3449C4.42632 29.7419 5.41435 29.7442 6.02017 30.3502L12.2142 36.5461C11.7223 36.9584 11.3475 37.5059 11.1475 38.1309L5.86586 32.8479C5.18926 32.1711 4.29592 31.8371 3.40492 31.8451C3.26935 31.3201 3.41401 30.7449 3.81779 30.3449Z" fill="#606F89"/>
<path d="M21.9375 19.9219H26.0625C26.5803 19.9219 27 19.5022 27 18.9844V16.7344H29.25C29.7678 16.7344 30.1875 16.3147 30.1875 15.7969V11.6719C30.1875 11.1541 29.7678 10.7344 29.25 10.7344H27V8.48438C27 7.96659 26.5803 7.54688 26.0625 7.54688H21.9375C21.4198 7.54688 21 7.96659 21 8.48438V10.7344H18.75C18.2323 10.7344 17.8125 11.1541 17.8125 11.6719V15.7969C17.8125 16.3147 18.2323 16.7344 18.75 16.7344H21V18.9844C21 19.5022 21.4198 19.9219 21.9375 19.9219ZM19.6875 14.8594V12.6094H21.9375C22.4553 12.6094 22.875 12.1897 22.875 11.6719V9.42188H25.125V11.6719C25.125 12.1897 25.5448 12.6094 26.0625 12.6094H28.3125V14.8594H26.0625C25.5448 14.8594 25.125 15.2791 25.125 15.7969V18.0469H22.875V15.7969C22.875 15.2791 22.4553 14.8594 21.9375 14.8594H19.6875Z" fill="#606F89"/>
<path d="M23.7744 29.3078C23.851 29.3275 23.9296 29.3374 24.0081 29.3374C24.0869 29.3374 24.1657 29.3274 24.2427 29.3076C29.8714 27.8526 34.3563 23.4575 35.9472 17.8374C36.0882 17.3392 35.7987 16.8211 35.3005 16.68C34.8019 16.5387 34.2842 16.8286 34.1431 17.3267C32.7551 22.2299 28.8837 26.0808 24.0075 27.4296C17.6982 25.6948 13.3125 19.9603 13.3125 13.3999V5.37018L24 1.92262L34.6875 5.37018V9.18524C34.6875 9.70302 35.1073 10.1227 35.625 10.1227C36.1428 10.1227 36.5625 9.70302 36.5625 9.18524V4.68749C36.5625 4.28062 36.3 3.92015 35.9128 3.79527L24.2878 0.045272C24.1007 -0.0150093 23.8992 -0.0150093 23.7121 0.045272L12.0871 3.79527C11.7 3.92015 11.4375 4.28062 11.4375 4.68749V13.3999C11.4375 17.0145 12.67 20.59 14.908 23.4679C17.139 26.3367 20.2878 28.4107 23.7744 29.3078Z" fill="#606F89"/>
<path d="M35.625 12.4669C35.3784 12.4669 35.1366 12.5663 34.9622 12.7407C34.7878 12.916 34.6875 13.1569 34.6875 13.4044C34.6875 13.651 34.7877 13.8929 34.9622 14.0672C35.1366 14.2416 35.3784 14.3419 35.625 14.3419C35.8716 14.3419 36.1134 14.2416 36.2877 14.0672C36.4621 13.8929 36.5625 13.651 36.5625 13.4044C36.5625 13.1569 36.4622 12.916 36.2877 12.7407C36.1134 12.5663 35.8716 12.4669 35.625 12.4669Z" fill="#606F89"/>
</svg>
