<svg width="20" height="20" viewBox="0 0 20 20" fill="none" xmlns="http://www.w3.org/2000/svg">
<path d="M20 2.14286C20 1.5625 19.7768 1.07143 19.375 0.625C18.9286 0.223214 18.4375 0 17.8571 0H2.14286C1.51786 0 1.02679 0.223214 0.625 0.625C0.178571 1.07143 0 1.5625 0 2.14286V17.8571C0 18.4821 0.178571 18.9732 0.625 19.375C1.02679 19.8214 1.51786 20 2.14286 20H10.9375V12.0982H8.21429V9.0625H10.9375V6.83036C10.9375 5.58036 11.25 4.64286 11.9643 3.92857C12.6786 3.21429 13.6161 2.85714 14.8214 2.85714C15.7143 2.85714 16.5179 2.90179 17.1429 2.99107V5.66964H15.5357C14.9554 5.66964 14.5536 5.80357 14.3304 6.07143C14.1518 6.33929 14.0625 6.69643 14.0625 7.14286V9.0625H17.1429L16.7411 12.0982H14.0625V20H17.8571C18.4375 20 18.9286 19.8214 19.375 19.375C19.7768 18.9732 20 18.4821 20 17.8571V2.14286Z" fill="#1C2445"/>
</svg>
