<svg width="74" height="16" viewBox="0 0 74 16" fill="none" xmlns="http://www.w3.org/2000/svg">
<path d="M27.1673 9.34686C28.2169 8.8925 28.8961 7.98377 28.8961 6.58824V6.55578C28.8961 5.71197 28.6491 4.99797 28.1552 4.4787C27.5995 3.89452 26.7042 3.53753 25.4076 3.53753H21.1781C21.8882 4.8357 22.3204 6.36106 22.3204 7.98377C22.3204 9.60649 21.9191 11.1318 21.1781 12.43H23.864V9.73631H24.9136L26.6116 12.43H29.2048L27.1673 9.34686ZM26.5499 6.78296C26.5499 7.43205 26.0868 7.85396 25.2841 7.85396H23.8331V5.71197H25.2532C26.0559 5.67951 26.5499 6.03651 26.5499 6.78296Z" fill="white"/>
<path d="M32.292 5.77688H29.7605V3.56998H37.1698V5.74442H34.6383V12.4949H32.292V5.77688Z" fill="white"/>
<path d="M38.3121 3.53753H45.6287V5.74442H40.6274V6.97769H44.579V8.92495H40.6274V10.3205H45.6287V12.43H38.3121V3.53753Z" fill="white"/>
<path d="M2.37714 5.74442V7.20487H5.37171C5.34084 7.46451 5.34084 7.72414 5.34084 7.98377C5.34084 8.40568 5.37171 8.86004 5.43346 9.28195H2.37714V12.4949H0V3.50507H6.4831C6.11264 4.18661 5.80392 4.93306 5.61869 5.74442H2.37714Z" fill="white"/>
<path d="M13.7997 16C9.60117 16 6.17438 12.3976 6.17438 7.98377C6.20526 3.60243 9.60117 0 13.7997 0C17.9983 0 21.4251 3.60243 21.4251 8.01623C21.4251 12.3976 17.9983 16 13.7997 16ZM13.7997 1.00609C10.126 1.00609 7.13141 4.15416 7.13141 8.01623C7.13141 11.8783 10.126 15.0264 13.7997 15.0264C17.4735 15.0264 20.4681 11.8783 20.4681 8.01623C20.4681 4.1217 17.5044 1.00609 13.7997 1.00609Z" fill="white"/>
<path d="M19.5111 7.95132C19.5111 11.2617 16.9487 13.9554 13.7997 13.9554C10.6508 13.9554 8.08844 11.2617 8.08844 7.95132C8.08844 4.64097 10.6508 1.94726 13.7997 1.94726C13.8924 1.94726 13.9541 1.94726 14.0467 1.94726C11.2683 2.07708 9.04547 4.4787 9.04547 7.43205C9.04547 10.4828 11.3917 12.9168 14.2628 12.9168C17.0722 12.9168 19.3567 10.5801 19.4802 7.65923C19.5111 7.78905 19.5111 7.88641 19.5111 7.95132Z" fill="white"/>
<path d="M49.8582 3.53753L51.8648 6.97769L53.8715 3.53753H56.3413V12.43H53.995V7.33469L51.834 10.8073H51.7722L49.6112 7.33469V12.43H47.3267V3.53753H49.8582Z" fill="white"/>
<path d="M64.7076 3.53753V5.6146H60.2002V6.97769H64.2753V8.92495H60.2002V10.3205H64.7384V12.43H57.854V3.53753H64.7076Z" fill="white"/>
<path d="M69.2457 3.53753C72.2712 3.53753 74 5.35497 74 7.95132V7.98377C74 10.5801 72.2094 12.4625 69.184 12.4625H65.9424V3.53753H69.2457ZM68.3196 5.71197V10.2556H69.2766C70.6967 10.2556 71.6229 9.44422 71.6229 8.01623V7.98377C71.6229 6.55578 70.6967 5.71197 69.2766 5.71197H68.3196Z" fill="white"/>
</svg>
