<svg width="180" height="37" viewBox="0 0 180 37" fill="none" xmlns="http://www.w3.org/2000/svg">
<path d="M66.0826 21.6146C68.6358 20.5639 70.2879 18.4625 70.2879 15.2353V15.1602C70.2879 13.2089 69.6871 11.5578 68.4856 10.357C67.1339 9.00608 64.9562 8.18053 61.8023 8.18053H51.5144C53.2416 11.1826 54.2929 14.7099 54.2929 18.4625C54.2929 22.215 53.3167 25.7424 51.5144 28.7444H58.0476V22.5152H60.6008L64.7309 28.7444H71.0388L66.0826 21.6146ZM64.5807 15.6856C64.5807 17.1866 63.4543 18.1623 61.5019 18.1623H57.9725V13.2089H61.4268C63.3792 13.1339 64.5807 13.9594 64.5807 15.6856Z" fill="#1C2445"/>
<path d="M78.5482 13.359H72.3905V8.25558H90.413V13.284H84.2553V28.8945H78.5482V13.359Z" fill="#1C2445"/>
<path d="M93.1915 8.18053H110.989V13.284H98.8235V16.1359H108.436V20.6389H98.8235V23.8661H110.989V28.7444H93.1915V8.18053Z" fill="#1C2445"/>
<path d="M5.78223 13.284V16.6613H13.0663C12.9912 17.2617 12.9912 17.8621 12.9912 18.4625C12.9912 19.4381 13.0663 20.4889 13.2165 21.4645H5.78223V28.8945H0V8.10548H15.7697C14.8686 9.68155 14.1176 11.4077 13.6671 13.284H5.78223Z" fill="#1C2445"/>
<path d="M33.567 37C23.3542 37 15.0188 28.6694 15.0188 18.4625C15.0939 8.33063 23.3542 0 33.567 0C43.7797 0 52.1151 8.33063 52.1151 18.5375C52.1151 28.6694 43.7797 37 33.567 37ZM33.567 2.32657C24.6308 2.32657 17.3467 9.60649 17.3467 18.5375C17.3467 27.4686 24.6308 34.7485 33.567 34.7485C42.5031 34.7485 49.7872 27.4686 49.7872 18.5375C49.7872 9.53144 42.5782 2.32657 33.567 2.32657Z" fill="#1C2445"/>
<path d="M47.4593 18.3874C47.4593 26.0426 41.2265 32.2718 33.567 32.2718C25.9074 32.2718 19.6746 26.0426 19.6746 18.3874C19.6746 10.7322 25.9074 4.50304 33.567 4.50304C33.7922 4.50304 33.9424 4.50304 34.1677 4.50304C27.4093 4.80324 22.0025 10.357 22.0025 17.1866C22.0025 24.2414 27.7096 29.8702 34.6934 29.8702C41.5269 29.8702 47.0839 24.4665 47.3842 17.712C47.4593 18.0122 47.4593 18.2373 47.4593 18.3874Z" fill="#77C8D2"/>
<path d="M115.269 8.18053H121.277L126.158 16.1359L131.039 8.18053H137.046V28.7444H131.339V16.9615L126.083 24.9919H125.932L120.676 16.9615V28.7444H115.119V8.18053H115.269Z" fill="#77C8D2"/>
<path d="M140.801 8.18053H157.397V12.9838H146.433V16.1359H156.345V20.6389H146.433V23.8661H157.472V28.7444H140.726V8.18053H140.801Z" fill="#77C8D2"/>
<path d="M160.476 8.18053H168.436C175.795 8.18053 180 12.3834 180 18.3874V18.4625C180 24.4665 175.645 28.8195 168.285 28.8195H160.401V8.18053H160.476ZM166.183 13.2089V23.716H168.511C171.965 23.716 174.218 21.8398 174.218 18.5375V18.4625C174.218 15.1602 171.965 13.2089 168.511 13.2089H166.183Z" fill="#77C8D2"/>
</svg>
